HIERARCHY
ROOT Hips
{
	OFFSET 0.00000 0.00000 0.00000
	CHANNELS 6 Xposition Yposition Zposition Yrotation Zrotation Xrotation 
	JOINT Lumbar
	{
		OFFSET 0 0 0
		CHANNELS 3 Zrotation Xrotation Yrotation
		JOINT Neck
		{
			OFFSET 0.00 0.2701 0.00
			CHANNELS 3 Zrotation Xrotation Yrotation
			End Site
			{
				OFFSET 0.00 0.1379 0.00
			}
		}
		JOINT RightShoulder
		{
			OFFSET 0.0119 0.2289 0.1181
			CHANNELS 3 Zrotation Xrotation Yrotation
			JOINT RightElbow
			{
				OFFSET 0.00 -0.1475 0.00
				CHANNELS 2 Zrotation Yrotation
				JOINT RightWrist
				{
					OFFSET 0.00 -0.1605 0.00
					CHANNELS 2 Zrotation Xrotation
					End Site
					{
						OFFSET 0.0040 -0.1068 0.0006
					}
				}
			}
		}
		JOINT LeftShoulder
		{
			OFFSET 0.0119 0.2289 -0.1181
			CHANNELS 3 Zrotation Xrotation Yrotation
			JOINT LeftElbow
			{
				OFFSET 0.00 -0.1475 0.00
				CHANNELS 2 Zrotation Yrotation
				JOINT LeftWrist
				{
					OFFSET 0.00 -0.1605 0.00
					CHANNELS 2 Zrotation Xrotation
					End Site
					{
						OFFSET 0.0040 -0.1068 -0.0006
					}
				}
			}
		}
	}
	JOINT RightHip
	{
		OFFSET 0.0316 -0.0424 0.0458
		CHANNELS 3 Zrotation Xrotation Yrotation
		JOINT RightKnee
		{
			OFFSET 0.00 -0.2438 0.00
			CHANNELS 1 Zrotation
			JOINT RightAnkle
			{
				OFFSET 0.00 -0.2449 0.00
				CHANNELS 3 Zrotation Xrotation Yrotation
				End Site
				{
					OFFSET 0.1237 -0.0542 0.0051
				}
			}
		}
	}
	JOINT LeftHip
	{
		OFFSET 0.0316 -0.0424 -0.0458
		CHANNELS 3 Zrotation Xrotation Yrotation
		JOINT LeftKnee
		{
			OFFSET 0.00 -0.2438 0.00
			CHANNELS 1 Zrotation
			JOINT LeftAnkle
			{
				OFFSET 0.00 -0.2449 0.00
				CHANNELS 3 Zrotation Xrotation Yrotation
				End Site
				{
					OFFSET 0.1237 -0.0542 -0.0051
				}
			}
		}
	}
}
MOTION
Frames: 16
Frame Time: 0.02
0.19229 0.03832 -0.05492 57.63914 -28.50061 -10.32305 37.09068 5.4884 -1.55103 -27.36571 3.16552 -0.82645 -15.29729 -17.81269 -10.14523 24.85728 88.39342 5.54015 5.44223 -23.22908 23.28521 -13.83026 48.42446 -94.72662 9.38487 -0.18674 43.69436 1.96565 -12.44681 -22.39661 -6.23909 -3.74694 -2.58013 50.79368 13.79529 -3.34914 -38.98104 -8.27155 2.86841 2.19035
0.19298 0.03838 -0.05507 57.48544 -28.61406 -10.27715 37.12608 5.54396 -1.69259 -27.35651 3.158 -0.82645 -15.39651 -17.85866 -9.61804 24.79729 88.38587 5.66666 5.31596 -23.20099 23.46189 -13.94485 48.58211 -94.60406 9.31537 -0.17856 43.7417 1.96113 -12.67838 -22.31898 -6.22089 -3.70416 -2.55636 50.64341 13.88603 -2.8447 -37.27588 -8.15998 2.79519 2.14666
0.19354 0.03841 -0.05533 57.28426 -28.71783 -10.22563 37.14827 5.58665 -1.79711 -27.35672 3.14248 -0.82645 -15.37674 -17.89974 -8.81653 24.80087 88.36075 5.8499 5.13689 -23.14639 23.65649 -14.09182 48.72316 -94.44064 9.23132 -0.1651 43.78243 1.95605 -12.83263 -22.23106 -6.20623 -3.66379 -2.53463 50.4477 14.00267 -2.28511 -35.41644 -8.03822 2.66709 2.07238
0.19415 0.03845 -0.05554 57.09549 -28.82606 -10.18105 37.1783 5.63656 -1.91693 -27.3515 3.13138 -0.82646 -15.41244 -17.93441 -8.15763 24.80245 88.34407 6.00822 4.98197 -23.10933 23.83904 -14.20896 48.87554 -94.30736 9.1618 -0.1548 43.8292 1.95391 -13.02287 -22.15096 -6.18976 -3.62175 -2.51161 50.27974 14.10045 -1.76434 -33.65293 -7.92219 2.56659 2.01348
0.19479 0.03851 -0.05573 56.94262 -28.93344 -10.11826 37.19963 5.68141 -2.0416 -27.35082 3.11602 -0.82646 -15.44375 -18.00544 -7.41888 24.70013 88.32536 6.17007 4.82309 -23.05083 24.03747 -14.3849 49.01406 -94.13278 9.06387 -0.14273 43.86422 1.93906 -13.21582 -22.06012 -6.17375 -3.58121 -2.48955 50.07823 14.22999 -1.18201 -31.76581 -7.80094 2.45344 1.94761
0.19534 0.03852 -0.056 56.70533 -29.04128 -10.09148 37.23682 5.73288 -2.14861 -27.34225 3.10796 -0.82647 -15.45396 -18.00058 -6.77833 24.82509 88.30585 6.33103 4.66146 -23.02882 24.20776 -14.45102 49.17581 -94.02363 9.01483 -0.13102 43.92285 1.95037 -13.38134 -21.98872 -6.15795 -3.53862 -2.46628 49.93762 14.29922 -0.71602 -30.10696 -7.68894 2.35419 1.88931
0.19568 0.03841 -0.05646 56.23928 -29.14287 -10.17127 37.31427 5.81298 -2.20773 -27.3197 3.12207 -0.82647 -15.45293 -17.77503 -6.53358 25.56896 88.29976 6.53007 4.50183 -23.12925 24.29013 -14.16709 49.41669 -94.21063 9.1679 -0.14203 44.03368 2.04274 -13.50267 -21.96745 -6.13952 -3.48784 -2.43791 49.97023 14.1903 -0.58779 -29.09409 -7.59773 2.30667 1.85894
0.19592 0.03827 -0.05701 55.69136 -29.24663 -10.2864 37.40907 5.89892 -2.25163 -27.28739 3.14373 -0.82647 -15.43179 -17.47538 -6.38866 26.53697 88.29173 6.71712 4.34239 -23.26463 24.34439 -13.77811 49.67942 -94.45022 9.36111 -0.151 44.17037 2.1601 -13.59632 -21.96677 -6.12159 -3.4353 -2.40848 50.06685 14.02019 -0.57942 -28.32246 -7.51743 2.27543 1.83753
0.1962 0.03814 -0.05752 55.18626 -29.35644 -10.38166 37.50094 5.97733 -2.30851 -27.25283 3.16227 -0.82647 -15.40773 -17.21769 -6.16042 27.3963 88.27702 6.87192 4.18537 -23.37377 24.4157 -13.46407 49.92472 -94.59069 9.49159 -0.14603 44.30513 2.26071 -13.69316 -21.96023 -6.10502 -3.38504 -2.38045 50.13912 13.88152 -0.51358 -27.45627 -7.43699 2.2368 1.81228
0.19651 0.03801 -0.05803 54.65662 -29.43809 -10.493 37.57304 6.0755 -2.34009 -27.2459 3.18001 -0.82648 -15.42906 -16.92512 -6.07873 28.28603 88.29265 7.18235 4.01553 -23.52496 24.47066 -13.03994 50.20079 -95.02755 9.80034 -0.19876 44.40037 2.38423 -13.82557 -21.93874 -6.08204 -3.32895 -2.34878 50.19148 13.72945 -0.45468 -26.51965 -7.33622 2.19548 1.78455
0.19673 0.03788 -0.05855 54.15818 -29.57667 -10.57908 37.68858 6.13453 -2.41925 -27.1801 3.20031 -0.82648 -15.35433 -16.68733 -5.72405 29.16579 88.24603 7.17199 3.87358 -23.59818 24.55138 -12.81519 50.41861 -94.88483 9.75884 -0.13699 44.58146 2.46572 -13.88013 -21.95326 -6.07229 -3.28413 -2.32419 50.29893 13.58916 -0.41521 -25.79057 -7.28002 2.16526 1.76501
0.19676 0.03778 -0.05908 53.77572 -29.8923 -10.58892 37.93733 6.08025 -2.65085 -26.94457 3.23466 -0.82648 -15.0051 -16.6223 -4.54978 29.95335 88.01808 6.2178 3.80521 -23.43933 24.72192 -13.20558 50.46639 -92.92146 8.64341 0.29251 45.01611 2.42759 -13.71018 -22.06322 -6.10058 -3.27452 -2.32156 50.5622 13.5075 -0.35851 -25.56471 -7.34861 2.15404 1.76177
0.19671 0.0377 -0.05962 53.426 -30.2614 -10.57182 38.22606 5.98715 -2.92796 -26.6519 3.26991 -0.82649 -14.56311 -16.61459 -3.1062 30.72414 87.72946 4.95193 3.76577 -23.20254 24.917 -13.79282 50.45565 -90.41492 7.19264 0.82732 45.53199 2.34594 -13.46572 -22.20854 -6.14184 -3.27568 -2.32572 50.87552 13.43792 -0.32399 -25.54263 -7.46091 2.15495 1.76728
0.19668 0.03761 -0.06016 53.05496 -30.59273 -10.5656 38.48496 5.91437 -3.17283 -26.39158 3.29879 -0.82649 -14.17346 -16.57813 -1.81473 31.50928 87.47522 3.8689 3.71564 -23.00688 25.09308 -14.26428 50.4742 -88.28948 5.95856 1.2799 45.99574 2.28245 -13.26716 -22.33708 -6.17605 -3.26938 -2.32528 51.15323 13.35497 -0.30843 -25.43472 -7.55036 2.15589 1.77179
0.1967 0.03751 -0.06066 52.70775 -30.981 -10.5661 38.79337 5.83047 -3.46527 -26.10387 3.35235 -0.8265 -13.74006 -16.54947 -0.40207 32.27582 87.19224 2.61301 3.65527 -22.78807 25.30155 -14.84325 50.48184 -85.58684 4.45294 1.87813 46.52472 2.22626 -13.01902 -22.46946 -6.21513 -3.27351 -2.33102 51.48666 13.30184 -0.17959 -25.30493 -7.65275 2.13478 1.76448
0.19659 0.03744 -0.06125 52.32033 -31.26333 -10.54609 39.00832 5.76046 -3.67047 -25.85988 3.35556 -0.82651 -13.37601 -16.52043 0.82463 33.07176 86.95465 1.64146 3.6229 -22.59883 25.44843 -15.24637 50.49838 -83.97209 3.4346 2.1974 46.93667 2.14469 -12.85397 -22.60183 -6.24718 -3.25891 -2.32574 51.71608 13.19195 -0.28393 -25.26792 -7.73848 2.16126 1.78318
